<svg width="3543px" height="4724px" viewBox="0 0 3543 4724" version="1.1" xmlns="http://www.w3.org/2000/svg">
  <defs>
    <linearGradient x1="50%" y1="0%" x2="50%" y2="52.9168551%" id="linearGradient-1">
      <stop stop-color="#FFF" stop-opacity="0" offset="0%"/>
      <stop stop-color="#FFF" offset="100%"/>
    </linearGradient>
  </defs>
  <g id="Page-2" stroke="none" stroke-width="1" fill="none" fill-rule="evenodd">
    <g id="30x40cm-portrait">
      <rect id="hide-this" fill="#D8D8D8" x="0" y="0" width="3543" height="4725"/>
      <path d="M0,0 L3543,0 L3543,4725 L0,4725 L0,0 Z M175,175 L3368,175 L3368,4550 L175,4550 L175,175 Z" id="white-padding" fill="#FFF"/>
      <rect id="gradient-only-client" fill="url(#linearGradient-1)" x="187" y="3153" width="3169" height="1385"/>
      <rect id="only-server-replace-with-image-classic-gradient-30x40cm-portrait.png" x="187" y="3153" width="3169" height="1385"/>
      <polygon id="black-outer-border" stroke="#000" stroke-width="24" points="187 4538 187 187 3356 187 3356 4538"/>
      <polygon id="white-middle-border" stroke="#FFF" stroke-width="30" points="214 4511 214 214 3329 214 3329 4511"/>
      <polygon id="black-inner-border" stroke="#000" stroke-width="16" points="237 4488 237 237 3306 237 3306 4488"/>
      <g id="labels" transform="translate(1773.000000, 3727.000000)">
        <g id="center">
          <text id="text" font-family="JosefinSans-Light, Josefin Sans" font-size="60" font-weight="300" letter-spacing="16" fill="#343434">
            <tspan x="0" y="565">60.160°N / 24.942°</tspan> <tspan x="762.42" y="565">E</tspan>
          </text>
          <text id="small-header" font-family="JosefinSans, Josefin Sans" font-size="90" font-weight="normal" letter-spacing="15" fill="#000">
            <tspan x="0" y="417">FINLAN</tspan> <tspan x="419.22" y="417">D</tspan>
          </text>
          <text id="header" font-family="JosefinSans-Bold, Josefin Sans" font-size="240" font-weight="bold" letter-spacing="30" fill="#000">
            <tspan x="0" y="228">HELSINK</tspan> <tspan x="1238.64" y="228">I</tspan>
          </text>
        </g>
      </g>
    </g>
  </g>
</svg>
