<svg width="5906px" height="8268px" viewBox="0 0 5906 8268" version="1.1" xmlns="http://www.w3.org/2000/svg">
  <defs>
    <linearGradient x1="50%" y1="0%" x2="50%" y2="41.8591701%" id="linearGradient-1">
      <stop stop-color="#FFF" stop-opacity="0" offset="0%"/>
      <stop stop-color="#FFF" offset="100%"/>
    </linearGradient>
  </defs>
  <g id="Page-2" stroke="none" stroke-width="1" fill="none" fill-rule="evenodd">
    <g id="50x70cm-portrait">
      
      <path d="M0,0 L5906,0 L5906,8268 L0,8268 L0,0 Z M235,235 L5671,235 L5671,8033 L235,8033 L235,235 Z" id="white-padding" fill="#FFF"/>
      <rect id="gradient" fill="url(#linearGradient-1)" x="106" y="5978" width="5671" height="2070"/>
      <polygon id="black-outer-border" stroke="#000" stroke-width="32" points="251 8017 251 251 5655 251 5655 8017"/>
      <polygon id="white-middle-border" stroke="#FFF" stroke-width="40" points="287 7981 287 287 5619 287 5619 7981"/>
      <polygon id="black-inner-border" stroke="#000" stroke-width="20" points="317 7951 317 317 5589 317 5589 7951"/>
      <g id="labels" transform="translate(2942.000000, 6582.000000)">
        <g id="center" text-anchor="middle">
          <text id="text" font-family="JosefinSans-Light, Josefin Sans" font-size="100" font-weight="300" letter-spacing="24" fill="#343434">
            <tspan x="0" y="944">60.160°N / 24.942°</tspan> 
          </text>
          <text id="small-header" font-family="JosefinSans, Josefin Sans" font-size="140" font-weight="normal" letter-spacing="20" fill="#000">
            <tspan x="0" y="682.25">FINLAN</tspan> 
          </text>
          <text id="header" font-family="JosefinSans-Bold, Josefin Sans" font-size="380" font-weight="bold" letter-spacing="45" fill="#000">
            <tspan x="0" y="361">HELSINK</tspan> 
          </text>
        </g>
      </g>
    </g>
  </g>
</svg>