<svg width="4724px" height="3543px" viewBox="0 0 4724 3543" version="1.1" xmlns="http://www.w3.org/2000/svg">
  <title>
    classic-30x40cm-landscape
  </title>
  <defs>
    <linearGradient x1="50%" y1="0%" x2="50%" y2="50%" id="linearGradient-1">
      <stop stop-color="#FFF" stop-opacity="0" offset="0%"/>
      <stop stop-color="#FFF" offset="100%"/>
    </linearGradient>
  </defs>
  <g id="Page-2" stroke="none" stroke-width="1" fill="none" fill-rule="evenodd">
    <g id="30x40cm-landscape">
      <rect id="hide-this" fill="#D8D8D8" x="0" y="0" width="4724" height="3543"/>
      <path d="M0,0 L4724,0 L4724,3543 L0,3543 L0,0 Z M175,175 L175,3368 L4549,3368 L4549,175 L175,175 Z" id="white-padding" fill="#FFF"/>
      <rect id="gradient-only-client" fill="url(#linearGradient-1)" x="105" y="2049" width="4520" height="1379"/>
      <rect id="only-server-replace-with-image-classic-gradient-30x40cm-landscape.png" x="105" y="2049" width="4520" height="1379"/>
      <polygon id="black-outer-border" stroke="#000" stroke-width="24" points="187 3356 187 187 4537 187 4537 3356"/>
      <polygon id="white-middle-border" stroke="#FFF" stroke-width="30" points="214 3329 214 214 4510 214 4510 3329"/>
      <polygon id="black-inner-border" stroke="#000" stroke-width="16" points="237 3306 237 237 4487 237 4487 3306"/>
      <g id="labels" transform="translate(2362.000000, 2575.000000)">
        <g id="center">
          <text id="text" font-family="JosefinSans-Light, Josefin Sans" font-size="60" font-weight="300" letter-spacing="16" fill="#343434">
            <tspan x="0" y="565">60.160°N / 24.942°</tspan> <tspan x="756.72" y="565">E</tspan>
          </text>
          <text id="small-header" font-family="JosefinSans-Regular, Josefin Sans" font-size="90" font-weight="normal" letter-spacing="15" fill="#000">
            <tspan x="0" y="417">FINLAN</tspan> <tspan x="440.37" y="417">D</tspan>
          </text>
          <text id="header" font-family="JosefinSans-Bold, Josefin Sans" font-size="240" font-weight="bold" letter-spacing="30" fill="#000">
            <tspan x="0" y="228">HELSINK</tspan> <tspan x="1311.84" y="228">I</tspan>
          </text>
        </g>
      </g>
    </g>
  </g>
</svg>
