<svg width="5400px" height="3600px" viewBox="0 0 5400 3600" version="1.1" xmlns="http://www.w3.org/2000/svg">
  <title>
    classic-12x18inch-landscape
  </title>
  <defs>
    <linearGradient x1="50%" y1="0%" x2="50%" y2="52.9168551%" id="linearGradient-1">
      <stop stop-color="#FFF" stop-opacity="0" offset="0%"/>
      <stop stop-color="#FFF" offset="100%"/>
    </linearGradient>
  </defs>
  <g id="Page-2" stroke="none" stroke-width="1" fill="none" fill-rule="evenodd">
    <g id="12x18inch-landscape">
      <rect id="hide-this" fill="#D8D8D8" x="0" y="0" width="5400" height="3600"/>
      <path d="M0,0 L5400,0 L5400,3600 L0,3600 L0,0 Z M202,202 L202,3398 L5198,3398 L5198,202 L202,202 Z" id="white-padding" fill="#FFF"/>
      <rect id="gradient-only-client" fill="url(#linearGradient-1)" x="178" y="2075" width="5044" height="1347"/>
      <rect id="only-server-replace-with-image-classic-gradient-12x18inch-landscape.png" x="178" y="2075" width="5044" height="1347"/>
      <polygon id="black-outer-border" stroke="#000" stroke-width="24" points="190 3410 190 190 5210 190 5210 3410"/>
      <polygon id="white-middle-border" stroke="#FFF" stroke-width="30" points="217 3383 217 217 5183 217 5183 3383"/>
      <polygon id="black-inner-border" stroke="#000" stroke-width="16" points="240 3360 240 240 5160 240 5160 3360"/>
      <g id="labels" transform="translate(2700.000000, 2628.000000)">
        <g id="center">
          <text id="text" font-family="JosefinSans-Light, Josefin Sans" font-size="60" font-weight="300" letter-spacing="16" fill="#343434">
            <tspan x="0" y="565">60.160°N / 24.942°</tspan> <tspan x="756.72" y="565">E</tspan>
          </text>
          <text id="small-header" font-family="JosefinSans-Regular, Josefin Sans" font-size="90" font-weight="normal" letter-spacing="15" fill="#000">
            <tspan x="0" y="417">FINLAN</tspan> <tspan x="440.37" y="417">D</tspan>
          </text>
          <text id="header" font-family="JosefinSans-Bold, Josefin Sans" font-size="240" font-weight="bold" letter-spacing="30" fill="#000">
            <tspan x="0" y="228">HELSINK</tspan> <tspan x="1311.84" y="228">I</tspan>
          </text>
        </g>
      </g>
    </g>
  </g>
</svg>
